<?xml version="1.0" encoding="UTF-8" standalone="no"?>
<!-- Created with Inkscape (http://www.inkscape.org/) -->

<svg
   width="200mm"
   height="200mm"
   viewBox="0 0 200 200"
   version="1.1"
   id="svg5"
   xml:space="preserve"
   inkscape:version="1.3.2 (091e20ef0f, 2023-11-25, custom)"
   sodipodi:docname="broken-flask.svg"
   inkscape:export-filename="icon-android.png"
   inkscape:export-xdpi="1040.384"
   inkscape:export-ydpi="1040.384"
   xmlns:inkscape="http://www.inkscape.org/namespaces/inkscape"
   xmlns:sodipodi="http://sodipodi.sourceforge.net/DTD/sodipodi-0.dtd"
   xmlns="http://www.w3.org/2000/svg"
   xmlns:svg="http://www.w3.org/2000/svg"><sodipodi:namedview
     id="namedview7"
     pagecolor="#505050"
     bordercolor="#ffffff"
     borderopacity="1"
     inkscape:showpageshadow="0"
     inkscape:pageopacity="0"
     inkscape:pagecheckerboard="1"
     inkscape:deskcolor="#505050"
     inkscape:document-units="mm"
     showgrid="false"
     inkscape:zoom="0.99640845"
     inkscape:cx="103.87306"
     inkscape:cy="322.15704"
     inkscape:window-width="1920"
     inkscape:window-height="1116"
     inkscape:window-x="0"
     inkscape:window-y="0"
     inkscape:window-maximized="1"
     inkscape:current-layer="layer1" /><defs
     id="defs2"><inkscape:path-effect
       effect="bspline"
       id="path-effect3"
       is_visible="true"
       lpeversion="1.3"
       weight="33.333333"
       steps="2"
       helper_size="0"
       apply_no_weight="true"
       apply_with_weight="true"
       only_selected="false"
       uniform="false" /><inkscape:path-effect
       effect="bspline"
       id="path-effect2"
       is_visible="true"
       lpeversion="1.3"
       weight="33.333333"
       steps="2"
       helper_size="0"
       apply_no_weight="true"
       apply_with_weight="true"
       only_selected="false"
       uniform="false" /></defs><g
     inkscape:label="Layer 1"
     inkscape:groupmode="layer"
     id="layer1"><path
       id="path441"
       style="fill:#ffffff;stroke-width:7.5"
       d="M 85.30022 51.824744 C 82.150226 51.824744 80.424821 55.424831 82.374817 57.899825 L 88.750138 65.850244 L 88.750138 88.724817 L 56.950012 129.67477 C 53.05002 134.62477 56.574798 141.82493 62.799784 141.82493 L 137.12496 141.82493 C 143.42496 141.82493 146.95018 134.6252 143.05018 129.75022 L 111.25006 88.799748 L 111.25006 68.084733 L 107.09941 69.370959 L 109.0936 76.347795 L 102.37101 75.832064 L 99.892611 85.328125 L 97.412142 84.679586 L 100.42953 73.109233 L 105.61526 73.509725 L 103.94508 67.66202 L 111.73013 65.251314 L 117.62486 57.899825 C 119.57486 55.424831 117.84996 51.824744 114.69998 51.824744 L 85.30022 51.824744 z M 112.56057 113.31195 C 115.42876 113.43665 118.29546 113.57058 121.16056 113.71864 L 137.19989 134.32513 L 102.57048 134.32513 L 106.34183 130.10265 L 105.09798 123.26224 L 113.18224 121.39672 L 112.56057 113.31195 z " /></g></svg>
